<svg width="640" height="640" viewBox="0 0 640 640" fill="none" xmlns="http://www.w3.org/2000/svg">
<path d="M461.002 506.159L506.684 153.5C515.286 84.2556 359.76 72.0504 320.5 72.0504C281.24 72.0504 125.714 84.2556 134.317 153.5L179.999 506.159C181.697 519.833 187.245 532.868 198.09 541.383C218.428 557.35 258.941 581 320.5 581C382.06 581 422.572 557.35 442.91 541.383C453.755 532.868 459.303 519.833 461.002 506.159Z" fill="#97B7C1"/>
<path fill-rule="evenodd" clip-rule="evenodd" d="M320 111C272.107 111 165.161 127.506 170.17 167.868L209.415 502.432C210.475 510.974 213.508 515.624 216.272 517.797C232.624 530.65 266.747 551 320 551C373.253 551 407.376 530.65 423.728 517.797C426.492 515.624 429.525 510.974 430.585 502.432L469.83 167.868C474.839 127.506 367.893 111 320 111Z" fill="#FBDE34"/>
<path fill-rule="evenodd" clip-rule="evenodd" d="M255.385 384.411C262.437 380.215 267 373.53 267 366C267 353.297 254.016 343 238 343C221.984 343 209 353.297 209 366C209 377.439 219.528 386.927 233.319 388.702C232.472 390.162 232 391.787 232 393.5C232 399.851 238.492 405 246.5 405C254.508 405 261 399.851 261 393.5C261 389.804 258.801 386.515 255.385 384.411Z" fill="white"/>
<path d="M230 492.209L251.263 479.365C255.403 486.625 259.096 492.768 268.049 492.768C276.666 492.768 282.037 489.417 282.037 476.461V388H308V476.796C308 503.714 292.221 516 269.056 516C248.241 516 236.155 505.166 230 492.209Z" fill="#343433"/>
<path d="M322 489.613L343.319 477.264C348.93 486.469 356.223 493.093 369.127 493.093C379.899 493.093 386.856 487.704 386.856 480.183C386.856 471.203 379.787 468.059 367.781 462.783L361.272 459.977C342.422 452.007 329.967 441.904 329.967 420.575C329.967 400.93 344.89 386 368.229 386C384.836 386 396.842 391.837 405.37 406.88L385.06 419.901C380.572 411.931 375.747 408.676 368.229 408.676C360.599 408.676 355.774 413.503 355.774 419.901C355.774 427.759 360.599 430.903 371.82 435.73L378.328 438.536C400.545 448.078 413 457.732 413 479.622C413 503.196 394.486 515.993 369.688 515.993C345.339 516.33 329.63 504.767 322 489.613Z" fill="#343433"/>
<mask id="mask0_4_253" style="mask-type:alpha" maskUnits="userSpaceOnUse" x="170" y="111" width="300" height="218">
<path d="M186.299 305.37C192.28 303.229 200.214 301.636 210.582 301.636C226.012 301.636 235.837 308.167 245.886 314.848C256.407 321.842 267.174 329 284.875 329C301.861 329 313.279 319.136 324.907 309.09C336.973 298.666 349.265 288.046 368.239 288.046C388.556 288.046 397.497 290.858 405.63 293.415C412.412 295.548 418.632 297.503 430.418 297.503C440.441 297.503 448.781 295.142 455.24 292.246L469.83 167.868C474.839 127.506 367.893 111 320 111C272.107 111 165.161 127.506 170.17 167.868L186.299 305.37Z" fill="white"/>
</mask>
<g mask="url(#mask0_4_253)">
<path d="M154 109H487V333H154V109Z" fill="#0052B4"/>
<path d="M154 109H487V183.667H154V109Z" fill="#D80027"/>
<path d="M154 258.333H487V333H154V258.333Z" fill="#FF9811"/>
<path fill-rule="evenodd" clip-rule="evenodd" d="M319.055 300.93C330.727 290.839 345.523 278.046 368.239 278.046C389.854 278.046 399.836 281.111 408.629 283.875L408.715 283.903C415.072 285.901 420.166 287.503 430.418 287.503C438.832 287.503 445.782 285.527 451.149 283.121L460.274 279.03L468.456 297.28L459.331 301.371C451.779 304.757 442.049 307.503 430.418 307.503C417.143 307.503 409.799 305.209 402.63 302.954L402.357 302.869C394.965 300.543 387.026 298.046 368.239 298.046C353.453 298.046 343.797 305.985 331.445 316.657C331.183 316.883 330.92 317.111 330.655 317.34C319.551 326.943 305.61 339 284.875 339C264.148 339 251.241 330.418 240.665 323.385C240.56 323.315 240.455 323.245 240.35 323.176C230.291 316.489 222.714 311.636 210.582 311.636C201.253 311.636 194.47 313.067 189.669 314.785L180.254 318.156L173.514 299.326L182.929 295.955C190.091 293.392 199.176 291.636 210.582 291.636C229.041 291.636 241.035 299.612 250.99 306.233C251.134 306.329 251.279 306.425 251.423 306.521C261.828 313.438 270.405 319 284.875 319C297.617 319 306.345 311.911 318.37 301.522C318.597 301.326 318.825 301.129 319.055 300.93Z" fill="white"/>
</g>
</svg>
